<?xml version="1.0" encoding="iso-8859-1"?>
<svg xmlns="http://www.w3.org/2000/svg" xmlns:xlink="http://www.w3.org/1999/xlink" version="1.1" viewBox="0 0 266.875 266.875" enable-background="new 0 0 266.875 266.875" width="512px" height="512px">
  <g>
    <path d="m204.422,104.037c-9.649-19.063-17.982-35.527-17.982-57.006 0-17.138-7.219-27.618-13.273-33.394-14.311-13.646-34.546-13.748-38.453-13.617l-1.296-.002-1.258,.002c-3.912-0.122-24.144-0.028-38.452,13.617-6.055,5.775-13.273,16.256-13.273,33.394 0,21.479-8.333,37.942-17.982,57.006-10.469,20.684-22.334,44.126-22.334,75.705 0,24.09 10.147,46.413 28.572,62.856 17.542,15.655 40.535,24.276 64.746,24.276s47.205-8.621 64.746-24.276c18.426-16.443 28.573-38.767 28.573-62.856 0-31.579-11.865-55.022-22.334-75.705zm-70.985,132.838c-34.914,0-63.318-25.63-63.318-57.133 0-24.42 9.278-42.75 19.101-62.156 10.431-20.607 21.216-41.916 21.216-70.555 0-7.825 2.939-10.677 3.905-11.613 4.622-4.483 13.021-5.416 16.473-5.416 0.146,0 0.283,0.001 0.41,0.005l.204,.015 1.991-.003 1.541,.002 .729-.017c2.116-0.094 11.731,0.537 16.773,5.344 0.983,0.938 3.978,3.794 3.978,11.684 0,28.639 10.785,49.947 21.216,70.555 9.822,19.406 19.101,37.736 19.101,62.156-0.001,31.502-28.406,57.132-63.32,57.132z" fill="#FFFFFF"/>
    <ellipse cx="133.437" cy="167.559" rx="37.867" ry="40.881" fill="#FFFFFF"/>
  </g>
</svg>
