<?xml version="1.0" encoding="iso-8859-1"?>
<svg xmlns="http://www.w3.org/2000/svg" xmlns:xlink="http://www.w3.org/1999/xlink" version="1.1" viewBox="0 0 463 463" enable-background="new 0 0 463 463" width="512px" height="512px">
  <g>
    <g>
      <path d="m407.5,100h-0.5v-8.5c0-8.547-6.953-15.5-15.5-15.5h-24c-8.547,0-15.5,6.953-15.5,15.5v8.5h-33v-32.5c0-21.78-17.72-39.5-39.5-39.5h-96c-21.78,0-39.5,17.72-39.5,39.5v32.5h-33v-8.5c0-8.547-6.953-15.5-15.5-15.5h-24c-8.547,0-15.5,6.953-15.5,15.5v8.5h-0.5c-30.603,0-55.5,24.897-55.5,55.5v224c0,30.603 24.897,55.5 55.5,55.5h352c30.603,0 55.5-24.897 55.5-55.5v-224c0-30.603-24.897-55.5-55.5-55.5zm-40.5-8.5c0-0.276 0.225-0.5 0.5-0.5h24c0.275,0 0.5,0.224 0.5,0.5v8.5h-25v-8.5zm-208-24c0-13.509 10.99-24.5 24.5-24.5h96c13.51,0 24.5,10.991 24.5,24.5v32.5h-17v-32.5c0-4.142-3.357-7.5-7.5-7.5h-96c-4.143,0-7.5,3.358-7.5,7.5v32.5h-17v-32.5zm32,32.5v-25h81v25h-81zm-120-8.5c0-0.276 0.225-0.5 0.5-0.5h24c0.275,0 0.5,0.224 0.5,0.5v8.5h-25v-8.5zm377,288c0,22.332-18.168,40.5-40.5,40.5h-352c-22.332,0-40.5-18.168-40.5-40.5v-224c0-22.332 18.168-40.5 40.5-40.5h352c22.332,0 40.5,18.168 40.5,40.5v224z" fill="#FFFFFF"/>
      <path d="m399.5,260h-336c-4.143,0-7.5,3.358-7.5,7.5s3.357,7.5 7.5,7.5h336c4.143,0 7.5-3.358 7.5-7.5s-3.357-7.5-7.5-7.5z" fill="#FFFFFF"/>
      <path d="m399.5,180h-336c-4.143,0-7.5,3.358-7.5,7.5s3.357,7.5 7.5,7.5h336c4.143,0 7.5-3.358 7.5-7.5s-3.357-7.5-7.5-7.5z" fill="#FFFFFF"/>
      <path d="m399.5,340h-336c-4.143,0-7.5,3.358-7.5,7.5s3.357,7.5 7.5,7.5h336c4.143,0 7.5-3.358 7.5-7.5s-3.357-7.5-7.5-7.5z" fill="#FFFFFF"/>
    </g>
  </g>
</svg>
