<?xml version="1.0" encoding="iso-8859-1"?>
<!-- Generator: Adobe Illustrator 18.0.0, SVG Export Plug-In . SVG Version: 6.00 Build 0)  -->
<!DOCTYPE svg PUBLIC "-//W3C//DTD SVG 1.1//EN" "http://www.w3.org/Graphics/SVG/1.1/DTD/svg11.dtd">
<svg xmlns="http://www.w3.org/2000/svg" xmlns:xlink="http://www.w3.org/1999/xlink" version="1.1" id="Capa_1" x="0px" y="0px" viewBox="0 0 60 60" style="enable-background:new 0 0 60 60;" xml:space="preserve" width="512px" height="512px">
<g>
	<path d="M16,20c-2.206,0-4,1.794-4,4s1.794,4,4,4s4-1.794,4-4S18.206,20,16,20z M16,26c-1.103,0-2-0.897-2-2s0.897-2,2-2   s2,0.897,2,2S17.103,26,16,26z" fill="#FFFFFF"/>
	<path d="M30,20c-2.206,0-4,1.794-4,4s1.794,4,4,4s4-1.794,4-4S32.206,20,30,20z M30,26c-1.103,0-2-0.897-2-2s0.897-2,2-2   s2,0.897,2,2S31.103,26,30,26z" fill="#FFFFFF"/>
	<path d="M44,20c-2.206,0-4,1.794-4,4s1.794,4,4,4s4-1.794,4-4S46.206,20,44,20z M44,26c-1.103,0-2-0.897-2-2s0.897-2,2-2   s2,0.897,2,2S45.103,26,44,26z" fill="#FFFFFF"/>
	<path d="M54,2H6C2.748,2,0,4.748,0,8v33c0,3.252,2.748,6,6,6h8v10c0,0.413,0.254,0.784,0.64,0.933C14.757,57.979,14.879,58,15,58   c0.276,0,0.547-0.114,0.74-0.327L25.442,47H54c3.252,0,6-2.748,6-6V8C60,4.748,57.252,2,54,2z M58,41c0,2.168-1.832,4-4,4H27.179   l3.579-4.161c0.36-0.419,0.313-1.051-0.105-1.41c-0.42-0.361-1.05-0.313-1.41,0.105l-4.982,5.793l0,0L16,54.413V46   c0-0.553-0.447-1-1-1H6c-2.168,0-4-1.832-4-4V8c0-2.168,1.832-4,4-4h48c2.168,0,4,1.832,4,4V41z" fill="#FFFFFF"/>
</g>
<g>
</g>
<g>
</g>
<g>
</g>
<g>
</g>
<g>
</g>
<g>
</g>
<g>
</g>
<g>
</g>
<g>
</g>
<g>
</g>
<g>
</g>
<g>
</g>
<g>
</g>
<g>
</g>
<g>
</g>
</svg>
