<svg xmlns="http://www.w3.org/2000/svg" viewBox="0 0 489.975 489.975">
	<path d="M258.988,5.475c-8.3-7.3-19.8-7.3-28.1,0c-7.3,7.3-177.1,167.8-177.1,278.2c0,113.6,85.4,206.3,190.7,206.3    s190.7-92.7,191.7-206.3C436.088,173.175,266.288,12.775,258.988,5.475z M244.388,449.375c-82.3,0-150-74-150-165.7    c0-69.8,97.9-182.3,150-234.4c52.1,52.1,150,164.6,150,234.4C394.388,375.375,327.688,449.375,244.388,449.375z" fill="#e3e9ea"/>
	<path d="M159.988,232.575c-11.5-3.1-21.9,3.1-25,14.6c-1,5.2-12.5,55.2,1,92.7c3.1,8.3,11.5,13.5,19.8,13.5    c2.1,0,23.1-3.4,17.7-26c-7.3-22.9-2.1-58.4,1-69.8C177.688,246.175,171.388,235.775,159.988,232.575z" fill="#e3e9ea"/>
</svg>
