<?xml version="1.0" encoding="iso-8859-1"?>
<!-- Generator: Adobe Illustrator 17.1.0, SVG Export Plug-In . SVG Version: 6.00 Build 0)  -->
<!DOCTYPE svg PUBLIC "-//W3C//DTD SVG 1.1//EN" "http://www.w3.org/Graphics/SVG/1.1/DTD/svg11.dtd">
<svg xmlns="http://www.w3.org/2000/svg" xmlns:xlink="http://www.w3.org/1999/xlink" version="1.1" id="Capa_1" x="0px" y="0px" viewBox="0 0 479 479" style="enable-background:new 0 0 479 479;" xml:space="preserve" width="512px" height="512px">
<g>
	<path d="M263.5,232c-4.142,0-7.5,3.358-7.5,7.5c0,9.098-7.402,16.5-16.5,16.5s-16.5-7.402-16.5-16.5s7.402-16.5,16.5-16.5   c4.142,0,7.5-3.358,7.5-7.5s-3.358-7.5-7.5-7.5c-5.972,0-11.561,1.67-16.325,4.569l-90.372-90.372   c-2.929-2.929-7.678-2.929-10.606,0c-2.929,2.929-2.929,7.677,0,10.606l90.372,90.372C209.671,227.939,208,233.528,208,239.5   c0,17.369,14.131,31.5,31.5,31.5s31.5-14.131,31.5-31.5C271,235.358,267.642,232,263.5,232z" fill="#FFFFFF"/>
	<path d="M408.852,70.148C363.616,24.912,303.473,0,239.5,0S115.384,24.912,70.148,70.148C24.913,115.384,0,175.527,0,239.5   s24.913,124.116,70.148,169.352C115.384,454.088,175.527,479,239.5,479s124.116-24.912,169.352-70.148   C454.087,363.616,479,303.473,479,239.5S454.087,115.384,408.852,70.148z M398.246,398.245C355.843,440.648,299.466,464,239.5,464   s-116.343-23.352-158.746-65.755c-12.257-12.256-22.91-25.687-31.88-40.027l21.17-12.223c3.587-2.071,4.816-6.658,2.745-10.245   c-2.071-3.588-6.658-4.816-10.245-2.745l-21.202,12.241c-16.06-30.002-25.071-63.44-26.206-98.246H39.5c4.142,0,7.5-3.358,7.5-7.5   s-3.358-7.5-7.5-7.5H15.137c1.135-34.806,10.146-68.243,26.206-98.246l21.202,12.241c1.181,0.682,2.471,1.006,3.743,1.006   c2.592,0,5.113-1.345,6.502-3.751c2.071-3.587,0.842-8.174-2.745-10.245l-21.17-12.223c8.969-14.341,19.623-27.771,31.88-40.027   c12.257-12.257,25.687-22.911,40.028-31.88l12.223,21.17c1.389,2.406,3.91,3.751,6.502,3.751c1.272,0,2.562-0.324,3.743-1.006   c3.587-2.071,4.816-6.658,2.745-10.245l-12.241-21.202c30.002-16.06,63.44-25.071,98.246-26.206V39.5c0,4.142,3.358,7.5,7.5,7.5   s7.5-3.358,7.5-7.5V15.137c34.806,1.135,68.243,10.146,98.246,26.206l-12.241,21.202c-2.071,3.587-0.842,8.174,2.745,10.245   c1.181,0.682,2.471,1.006,3.743,1.006c2.592,0,5.113-1.345,6.502-3.751l12.222-21.17c14.341,8.969,27.771,19.623,40.028,31.88   c12.257,12.256,22.91,25.687,31.88,40.027l-21.17,12.223c-3.587,2.071-4.816,6.658-2.745,10.245   c1.389,2.406,3.91,3.751,6.502,3.751c1.272,0,2.562-0.324,3.743-1.006l21.202-12.241c16.06,30.002,25.071,63.44,26.206,98.246   H439.5c-4.142,0-7.5,3.358-7.5,7.5s3.358,7.5,7.5,7.5h24.363c-1.135,34.806-10.146,68.243-26.206,98.246l-21.202-12.241   c-3.587-2.072-8.174-0.842-10.245,2.745c-2.071,3.587-0.842,8.174,2.745,10.245l21.17,12.223   C421.156,372.559,410.502,385.989,398.246,398.245z" fill="#FFFFFF"/>
</g>
<g>
</g>
<g>
</g>
<g>
</g>
<g>
</g>
<g>
</g>
<g>
</g>
<g>
</g>
<g>
</g>
<g>
</g>
<g>
</g>
<g>
</g>
<g>
</g>
<g>
</g>
<g>
</g>
<g>
</g>
</svg>
