<?xml version="1.0" encoding="iso-8859-1"?>
<!-- Generator: Adobe Illustrator 16.0.0, SVG Export Plug-In . SVG Version: 6.00 Build 0)  -->
<!DOCTYPE svg PUBLIC "-//W3C//DTD SVG 1.1//EN" "http://www.w3.org/Graphics/SVG/1.1/DTD/svg11.dtd">
<svg xmlns="http://www.w3.org/2000/svg" xmlns:xlink="http://www.w3.org/1999/xlink" version="1.1" id="Capa_1" x="0px" y="0px" width="512px" height="512px" viewBox="0 0 31.984 31.984" style="enable-background:new 0 0 31.984 31.984;" xml:space="preserve">
<g>
	<g id="Tools">
		<g>
			<path d="M31.107,18.82c-1.43-0.186-2.505-1.399-2.505-2.828c0-1.429,1.075-2.646,2.505-2.829c0.284-0.037,0.538-0.193,0.699-0.43     c0.159-0.237,0.213-0.531,0.142-0.81c-0.388-1.526-0.992-2.986-1.798-4.341c-0.146-0.246-0.393-0.418-0.672-0.472     c-0.283-0.053-0.572,0.016-0.801,0.19c-1.103,0.853-2.783,0.757-3.771-0.229c-1.012-1.01-1.11-2.631-0.23-3.771     c0.177-0.226,0.245-0.517,0.191-0.798s-0.225-0.525-0.471-0.673c-1.353-0.804-2.812-1.408-4.341-1.798     c-0.279-0.07-0.572-0.02-0.811,0.142s-0.394,0.416-0.431,0.699c-0.186,1.428-1.4,2.504-2.829,2.504     c-1.43,0-2.646-1.076-2.828-2.503c-0.037-0.284-0.193-0.539-0.43-0.7c-0.237-0.16-0.53-0.211-0.81-0.142     c-1.527,0.391-2.988,0.996-4.34,1.8C7.335,1.978,7.165,2.223,7.11,2.504C7.057,2.785,7.127,3.077,7.302,3.302     c0.88,1.14,0.782,2.761-0.229,3.771c-0.985,0.985-2.668,1.083-3.772,0.23C3.074,7.128,2.785,7.061,2.502,7.112     C2.222,7.166,1.978,7.337,1.831,7.584C1.023,8.939,0.419,10.4,0.032,11.926c-0.07,0.277-0.018,0.571,0.143,0.809     c0.161,0.235,0.416,0.393,0.699,0.43c1.428,0.185,2.504,1.4,2.504,2.829c0,1.429-1.076,2.642-2.504,2.826     c-0.283,0.036-0.538,0.191-0.699,0.43c-0.159,0.236-0.213,0.53-0.143,0.81c0.387,1.525,0.992,2.986,1.798,4.342     c0.146,0.246,0.391,0.418,0.672,0.473c0.28,0.051,0.572-0.018,0.798-0.189c1.108-0.854,2.789-0.756,3.772,0.229     c1.011,1.011,1.109,2.632,0.229,3.771c-0.175,0.228-0.243,0.519-0.189,0.799c0.054,0.279,0.226,0.524,0.471,0.672     c1.353,0.805,2.812,1.408,4.342,1.799c0.081,0.021,0.164,0.029,0.246,0.029c0.198,0,0.396-0.06,0.562-0.173     c0.235-0.161,0.393-0.416,0.43-0.699c0.183-1.428,1.398-2.504,2.828-2.504c1.429,0,2.646,1.076,2.829,2.504     c0.037,0.284,0.191,0.539,0.431,0.699c0.236,0.161,0.529,0.213,0.811,0.144c1.526-0.391,2.986-0.994,4.34-1.799     c0.245-0.146,0.417-0.392,0.471-0.672s-0.016-0.57-0.188-0.798c-0.881-1.142-0.779-2.763,0.229-3.771     c0.986-0.985,2.667-1.081,3.771-0.229c0.226,0.175,0.517,0.243,0.798,0.189c0.279-0.055,0.523-0.227,0.672-0.473     c0.806-1.354,1.41-2.813,1.798-4.342c0.071-0.276,0.021-0.571-0.142-0.809C31.646,19.013,31.393,18.856,31.107,18.82z      M28.91,22.505c-1.802-0.803-4.017-0.409-5.415,0.991c-1.441,1.44-1.795,3.61-0.992,5.415c-0.639,0.321-1.301,0.597-1.979,0.819     c-0.707-1.844-2.491-3.128-4.531-3.128c-2.04,0-3.824,1.284-4.53,3.128c-0.681-0.225-1.344-0.498-1.981-0.819     c0.805-1.804,0.451-3.975-0.991-5.416c-0.914-0.914-2.129-1.417-3.422-1.417c-0.688,0-1.369,0.147-1.994,0.427     c-0.323-0.641-0.598-1.303-0.821-1.982c1.844-0.706,3.129-2.491,3.129-4.529c0-2.04-1.285-3.824-3.129-4.531     c0.225-0.68,0.498-1.343,0.821-1.981c0.625,0.278,1.308,0.428,1.995,0.428c1.293,0,2.508-0.504,3.422-1.418     c1.443-1.442,1.796-3.613,0.99-5.417c0.639-0.322,1.301-0.596,1.981-0.82c0.706,1.844,2.49,3.128,4.53,3.128     c2.04,0,3.824-1.284,4.531-3.128c0.681,0.226,1.343,0.498,1.979,0.82c-0.805,1.804-0.451,3.975,0.992,5.417     c0.914,0.914,2.129,1.417,3.421,1.417c0.688,0,1.369-0.148,1.994-0.427c0.323,0.64,0.598,1.302,0.821,1.981     c-1.846,0.707-3.129,2.491-3.129,4.531c0,2.038,1.283,3.823,3.129,4.529C29.508,21.203,29.233,21.865,28.91,22.505z M15.99,7.314     c-4.784,0-8.677,3.893-8.677,8.678c0,4.783,3.893,8.677,8.677,8.677c4.784,0,8.677-3.894,8.677-8.677     C24.667,11.207,20.774,7.314,15.99,7.314z M15.99,22.669c-3.682,0-6.677-2.995-6.677-6.677c0-3.682,2.995-6.678,6.677-6.678     s6.677,2.996,6.677,6.678C22.667,19.674,19.672,22.669,15.99,22.669z M15.99,11.25c-2.614,0-4.741,2.128-4.741,4.742     c0,2.613,2.127,4.74,4.741,4.74c2.614,0,4.742-2.127,4.742-4.74C20.732,13.378,18.605,11.25,15.99,11.25z M15.99,17.862     c-1.033,0-1.871-0.838-1.871-1.87c0-1.033,0.838-1.871,1.871-1.871c1.033,0,1.871,0.838,1.871,1.871     C17.861,17.024,17.023,17.862,15.99,17.862z" fill="#FFFFFF"/>
		</g>
	</g>
</g>
<g>
</g>
<g>
</g>
<g>
</g>
<g>
</g>
<g>
</g>
<g>
</g>
<g>
</g>
<g>
</g>
<g>
</g>
<g>
</g>
<g>
</g>
<g>
</g>
<g>
</g>
<g>
</g>
<g>
</g>
</svg>
