<?xml version="1.0" encoding="iso-8859-1"?>
<!-- Generator: Adobe Illustrator 18.1.1, SVG Export Plug-In . SVG Version: 6.00 Build 0)  -->
<svg xmlns="http://www.w3.org/2000/svg" xmlns:xlink="http://www.w3.org/1999/xlink" version="1.1" id="Capa_1" x="0px" y="0px" viewBox="0 0 32 32" style="enable-background:new 0 0 32 32;" xml:space="preserve" width="512px" height="512px">
<g>
	<g>
		<path d="M31.414,9.672l-5.08-5.081c-0.375-0.375-0.885-0.586-1.414-0.586H7.081    c-0.53,0-1.039,0.211-1.414,0.586l-5.08,5.081C0.194,10.064-0.002,10.581,0,11.099c0.003,0.47,0.171,0.939,0.506,1.316    l13.999,14.908c0.38,0.428,0.924,0.672,1.495,0.672c0.57,0,1.115-0.244,1.494-0.672l14-14.908c0.342-0.385,0.51-0.867,0.506-1.348    C31.996,10.561,31.799,10.057,31.414,9.672z M24.219,6.005l-1.916,1.597l-1.596-1.597H24.219z M24.293,11.005h-4.514l2.463-2.051    L24.293,11.005z M21.532,8.245L19,10.354l-2.218-1.849l2.731-2.278L21.532,8.245z M18.219,11.005H13.78L16,9.156L18.219,11.005z     M18.218,6.005L16,7.855l-2.22-1.85H18.218z M15.219,8.505L13,10.354l-2.532-2.109l2.018-2.018L15.219,8.505z M12.22,11.005H7.707    l2.051-2.051L12.22,11.005z M11.293,6.005L9.696,7.602L7.78,6.005H11.293z M6.686,6.395l2.301,1.917l-2.694,2.693H2.006    L6.686,6.395z M2.864,12.005h3.554l6.286,10.479L2.864,12.005z M7.583,12.005h4.907l2.453,12.271L7.583,12.005z M13.51,12.005    h4.98L16,24.458L13.51,12.005z M17.057,24.275l2.453-12.271h4.906L17.057,24.275z M19.295,22.485l6.287-10.48h3.555L19.295,22.485    z M25.707,11.005l-2.693-2.693l2.297-1.915l4.607,4.608H25.707z" fill="#FFFFFF"/>
	</g>
</g>
<g>
</g>
<g>
</g>
<g>
</g>
<g>
</g>
<g>
</g>
<g>
</g>
<g>
</g>
<g>
</g>
<g>
</g>
<g>
</g>
<g>
</g>
<g>
</g>
<g>
</g>
<g>
</g>
<g>
</g>
</svg>
